<svg width="48" height="48" fill="none" xmlns="http://www.w3.org/2000/svg"><path d="M38 10h2c2.21 0 4 1.79 4 4v24c0 2.21-1.79 4-4 4H8c-2.21 0-4-1.79-4-4V14c0-2.21 1.79-4 4-4h2" stroke="#fff" stroke-width="1.5" stroke-linecap="round" stroke-linejoin="round"/><path clip-rule="evenodd" d="M24 12a6 6 0 00-6-6h-6a2 2 0 00-2 2v26a2 2 0 002 2h6a6 6 0 016 6 6 6 0 016-6h6a2 2 0 002-2V8a2 2 0 00-2-2h-6a6 6 0 00-6 6z" stroke="#fff" stroke-width="1.5" stroke-linecap="round" stroke-linejoin="round"/><path d="M24 12v30" stroke="#fff" stroke-width="1.5" stroke-linecap="round" stroke-linejoin="round"/></svg>