<svg width="50" height="50" fill="none" xmlns="http://www.w3.org/2000/svg"><path d="M16.256 30.734l7.315-4.46V16.97" stroke="#fff" stroke-width="1.5" stroke-linecap="round" stroke-linejoin="round"/><path d="M23 43.008c-9.687.003-17.64-7.656-18.002-17.336-.362-9.679 6.998-17.91 16.657-18.63 9.66-.72 18.157 6.331 19.234 15.957M39.672 35.67l-3.333 3.336-2.001-2.001" stroke="#fff" stroke-width="1.5" stroke-linecap="round" stroke-linejoin="round"/><path clip-rule="evenodd" d="M41.007 45.008h-8.004a4.002 4.002 0 01-4.001-4.001v-8.004a4.002 4.002 0 014.001-4.001h8.004a4.002 4.002 0 014.001 4.001v8.004a4.002 4.002 0 01-4.001 4.001z" stroke="#fff" stroke-width="1.5" stroke-linecap="round" stroke-linejoin="round"/></svg>