<svg width="36" height="66" viewBox="0 0 36 66" fill="none" xmlns="http://www.w3.org/2000/svg">
<g clip-path="url(#clip0_95_42)">
<path d="M17.9999 36C24.6539 36 30.0674 30.5865 30.0674 23.9325L30.0674 9.97716C30.0674 4.47577 25.5917 9.04023e-07 20.0903 4.23076e-07L15.9096 5.75868e-08C10.4082 -4.2336e-07 5.93242 4.47577 5.93242 9.97716L5.93242 23.9325C5.93242 30.5865 11.346 36 17.9999 36ZM20.0903 2.79377C24.0514 2.79377 27.2737 6.01622 27.2737 9.97716L27.2737 14.7104L8.72619 14.7104L8.72619 9.97716C8.72619 6.01607 11.9486 2.79377 15.9096 2.79377L20.0903 2.79377ZM18.4656 28.1199C18.4656 28.3766 18.2566 28.5855 17.9999 28.5855C17.7432 28.5855 17.5343 28.3766 17.5343 28.1199L17.5343 23.1661C17.5343 22.9093 17.7432 22.7004 17.9999 22.7004C18.2566 22.7004 18.4656 22.9093 18.4656 23.1661L18.4656 28.1199ZM8.72619 17.5042L16.6031 17.5042L16.6031 20.2258C15.5039 20.7502 14.7405 21.8693 14.7405 23.1662L14.7405 28.1199C14.7405 29.4166 15.5039 30.5359 16.6031 31.0603L16.6031 33.1008C12.1499 32.4252 8.72619 28.5712 8.72619 23.9325L8.72619 17.5042ZM19.3968 33.1008L19.3968 31.0603C20.496 30.5359 21.2593 29.4168 21.2593 28.1199L21.2593 23.1661C21.2593 21.8693 20.496 20.7501 19.3968 20.2256L19.3968 17.504L27.2737 17.504L27.2737 23.9325C27.2737 28.5714 23.8501 32.4252 19.3968 33.1008Z" fill="#929292"/>
</g>
<path d="M17.7408 65.4443C17.9361 65.6395 18.2527 65.6395 18.4479 65.4443L21.6299 62.2623C21.8252 62.067 21.8252 61.7504 21.6299 61.5552C21.4346 61.3599 21.118 61.3599 20.9228 61.5552L18.0944 64.3836L15.2659 61.5552C15.0707 61.3599 14.7541 61.3599 14.5588 61.5552C14.3636 61.7504 14.3636 62.067 14.5588 62.2623L17.7408 65.4443ZM18.5944 65.0907L18.5944 43L17.5944 43L17.5944 65.0907L18.5944 65.0907Z" fill="#929292"/>
<defs>
<clipPath id="clip0_95_42">
<rect width="36" height="36" fill="white" transform="translate(36 36) rotate(-180)"/>
</clipPath>
</defs>
</svg>
