<svg width="38" height="38" fill="none" xmlns="http://www.w3.org/2000/svg"><path d="M34.344 28.333c-.297.003-.264-.011-.658.016v-9.227c0-.987-.804-1.79-1.791-1.79H22.16v-13.9l4.27 4.127c.241.233.38.56.38.895v6.81a.557.557 0 001.113 0v-6.81a2.37 2.37 0 00-.72-1.696l-5.213-5.04a.568.568 0 00-.564-.127l-9.354 3.144V2.568c.008-.947-.842-1.771-1.83-1.714-.946 0-1.715.769-1.715 1.714v3.359l-2.447.822a2.357 2.357 0 00-1.607 2.236v19.35A4.596 4.596 0 000 32.926v2.83c0 .768.625 1.393 1.394 1.393h35.212c.769 0 1.394-.625 1.394-1.393v-3.767a3.66 3.66 0 00-3.656-3.655zm0 1.113a2.545 2.545 0 012.543 2.542v.584h-5.4v-.584c.002-1.521 1.338-2.674 2.857-2.542zm-1.772-10.324v9.515a3.66 3.66 0 00-2.198 3.351v.584H22.16V18.445h9.735c.373 0 .677.304.677.677zM9.64 2.568c0-.331.27-.6.601-.6.298-.044.699.19.718.6v2.541l-1.319.444V2.568zm-5.167 26.88v3.124H1.13a3.484 3.484 0 013.342-3.124zm-3.36 6.307v-2.07h3.36v2.35h-3.08a.28.28 0 01-.28-.28zm4.473-26.77c0-.535.341-1.01.849-1.18l14.611-4.912v3.033l-12.14 4.08a.557.557 0 10.355 1.056l11.785-3.961v2.832l-12.14 4.08a.557.557 0 00.355 1.056l11.785-3.962v2.832l-12.14 4.08a.557.557 0 10.355 1.056l11.785-3.962v2.832l-12.14 4.08a.557.557 0 00.355 1.056l11.785-3.961v2.831l-7.58 2.549a.557.557 0 10.354 1.055l7.226-2.429v12.91h-4.809V30.25c0-.379-.173-.728-.475-.957a1.192 1.192 0 00-1.05-.2l-5.18 1.446a1.378 1.378 0 00-1.005 1.323v4.172h-2.94V8.985zM9.64 31.863a.26.26 0 01.19-.25l1.996-.558v4.98H9.64v-4.172zm3.299 4.172v-5.29l2.073-.58a.084.084 0 01.077.016.084.084 0 01.035.07v5.784H12.94zm9.22 0v-2.35h8.215v2.35H22.16zm14.728-.28a.28.28 0 01-.28.28h-5.12v-2.35h5.4v2.07z" fill="#fff"/><path d="M9.084 27.117c.058 0 .118-.01.177-.03l2.067-.694a.557.557 0 10-.355-1.056l-2.067.695a.557.557 0 00.178 1.085zm15.513-4.081h5.46a.94.94 0 00.938-.939v-1.34a.94.94 0 00-.939-.938h-5.459a.94.94 0 00-.938.938v1.34a.94.94 0 00.938.939zm.175-2.104h5.11v.99h-5.11v-.99zm-.175 6.337h5.46a.94.94 0 00.938-.94V24.99a.94.94 0 00-.939-.939h-5.459a.94.94 0 00-.938.939v1.34a.94.94 0 00.938.939zm.175-2.104h5.11v.99h-5.11v-.99zm-.175 6.38h1.806a.94.94 0 00.939-.94v-1.339a.94.94 0 00-.94-.939h-1.805a.94.94 0 00-.938.939v1.34a.94.94 0 00.938.939zm.175-2.105h1.457v.991h-1.457v-.99z" fill="#fff"/></svg>