<svg width="38" height="38" fill="none" xmlns="http://www.w3.org/2000/svg"><path d="M35.328 2.969H2.672A2.08 2.08 0 00.594 5.047v23.156a2.08 2.08 0 002.078 2.078H14.56l-.712 1.782H11.28a.594.594 0 00-.594.593v1.782a.594.594 0 00.594.593h15.44a.594.594 0 00.593-.593v-1.782a.594.594 0 00-.593-.593h-2.567l-.712-1.782h11.888a2.08 2.08 0 002.078-2.078V5.047a2.08 2.08 0 00-2.078-2.078zM26.125 33.25v.594h-14.25v-.594h14.25zm-10.998-1.188l.713-1.78h6.32l.713 1.78h-7.746zm21.092-3.859a.891.891 0 01-.89.89H2.671a.891.891 0 01-.89-.89v-.89h34.437v.89zm0-2.078H1.78v-3.563h34.44v3.563zM9.378 11.895c.96 0 2.444-.173 4.278-.948v2.116a2.375 2.375 0 11-4.75 0V11.88c.14.009.296.015.472.015zm-.472-1.204v-.004a2.378 2.378 0 012.375-2.374c.94 0 1.771.596 2.153 1.435-1.472.656-2.68.873-3.466.937-.354.029-.708.03-1.062.005zm2.969 5.883v.645a.594.594 0 01-1.188 0v-.645c.394.068.795.068 1.188 0zM11.281 19a1.784 1.784 0 001.68-1.188h.695a2.378 2.378 0 012.375 2.375v1.188h-1.187v-.594a.594.594 0 00-1.188 0v.594h-4.75v-.594a.594.594 0 00-1.187 0v.594H6.53v-1.188a2.378 2.378 0 012.375-2.375h.696A1.784 1.784 0 0011.282 19zm24.938 2.375h-19v-1.188a3.567 3.567 0 00-3.563-3.562h-.594v-.48a3.563 3.563 0 001.782-3.082v-2.376l-.002-.05a3.65 3.65 0 00-1.034-2.424 3.493 3.493 0 00-2.527-1.088 3.566 3.566 0 00-3.562 3.563v2.374A3.564 3.564 0 009.5 16.145v.48h-.594a3.567 3.567 0 00-3.562 3.563v1.187H1.78V5.047a.891.891 0 01.89-.89h32.657a.891.891 0 01.89.89v16.328z" fill="#fff"/><path d="M17.813 15.438h1.78v1.78a.593.593 0 001.014.42l2.201-2.2h9.255a.594.594 0 00.593-.594v-9.5a.594.594 0 00-.593-.594h-14.25a.594.594 0 00-.594.594v9.5a.594.594 0 00.593.594zm.593-9.5H31.47v8.312h-8.907a.594.594 0 00-.42.174l-1.36 1.361v-.941a.594.594 0 00-.595-.594h-1.78V5.937zm8.907 17.812h-12.47a.593.593 0 10-1.187 0h-2.969a.594.594 0 000 1.188h2.97a.593.593 0 101.187 0h12.469a.594.594 0 000-1.188z" fill="#fff"/></svg>