<svg width="194" height="160" fill="none" xmlns="http://www.w3.org/2000/svg"><path d="M130.627 85.578c-.908-3.256-1.369-6.996-1.369-11.229 0-11.618 4.386-23.09 13.265-34.434 9.301-11.362 20.202-19.66 32.704-24.922l.982-.413-.475-.954-5.516-11.072-.434-.87-.882.409c-21.384 9.904-37.48 23.139-48.225 39.728l-.005.008-.005.007c-10.32 16.571-15.473 35.209-15.473 55.886 0 16.138 3.505 29.863 10.571 41.126C124.126 152.272 136.507 159 152.774 159c11.281 0 20.735-3.784 28.289-11.366 7.952-7.979 11.937-17.665 11.937-28.999 0-12.121-3.965-21.833-11.956-29.02-7.551-7.567-16.999-11.345-28.27-11.345-8.303 0-15.697 2.438-22.147 7.308zm-104.193 0c-.908-3.256-1.37-6.996-1.37-11.229 0-11.618 4.386-23.09 13.265-34.434 9.302-11.362 20.203-19.66 32.704-24.922l.983-.413-.476-.954-5.516-11.072-.433-.87-.882.409c-21.385 9.904-37.48 23.139-48.226 39.728l-.005.008-.004.007C6.154 58.407 1 77.045 1 97.722c0 16.137 3.505 29.862 10.57 41.125C19.933 152.272 32.314 159 48.58 159c11.281 0 20.735-3.784 28.29-11.366 7.951-7.979 11.936-17.665 11.936-28.999 0-12.121-3.965-21.833-11.956-29.02C69.3 82.049 59.852 78.27 48.58 78.27c-8.303 0-15.696 2.438-22.146 7.308z" stroke="#72BF24" stroke-width="2"/></svg>