<svg width="38" height="38" fill="none" xmlns="http://www.w3.org/2000/svg"><g clip-path="url(#clip0_3109_15193)" fill="#fff"><path d="M37.443 34.804h-.633V19.26h.633a.557.557 0 00.51-.782l-2.38-5.355a.557.557 0 00-.51-.33H23.396l-3.838-3.84V6.17h3.608a.556.556 0 00.556-.556V2.639a.557.557 0 00-.556-.557H19a.557.557 0 00-.557.557v6.314l-3.838 3.838H2.936c-.22 0-.419.13-.508.33l-2.38 5.356a.557.557 0 00.509.782h.633v15.545H.557a.557.557 0 000 1.114h36.886a.557.557 0 000-1.114zM22.608 5.057h-3.051V3.196h3.051v1.861zm-19.31 8.848h10.194l-4.242 4.24H1.413l1.885-4.24zm-.995 5.354h7.178a.553.553 0 00.393-.163L19 9.971l9.126 9.125a.557.557 0 00.393.163h4.165a.557.557 0 000-1.113H28.75l-4.241-4.241h10.193l1.885 4.24h-1.523a.557.557 0 100 1.114h.633v15.545h-11.38v-1.823a.557.557 0 00-.557-.556h-.634v-4.798a.557.557 0 00-.556-.557h-7.14a.557.557 0 00-.556.557v4.798h-.633a.557.557 0 00-.557.556v1.823H2.304V19.26zm19.71 8.924v4.242h-2.456v-4.242h2.456zm-3.57 4.242h-2.456v-4.242h2.456v4.242zm4.76 1.113v1.266h-8.406v-1.266h8.406z"/><path d="M19 24.019a4.131 4.131 0 004.126-4.127A4.13 4.13 0 0019 15.766a4.13 4.13 0 00-4.126 4.126A4.131 4.131 0 0019 24.02zm0-7.14a3.017 3.017 0 013.013 3.013A3.016 3.016 0 0119 22.905a3.016 3.016 0 01-3.013-3.013A3.016 3.016 0 0119 16.88z"/><path d="M19 21.639c.307 0 .557-.25.557-.557v-.846l.882-.44a.556.556 0 10-.498-.996l-1.19.595a.557.557 0 00-.308.497v1.19c0 .308.25.557.557.557zm-6.544 5.431h-8.33a.557.557 0 00-.556.557v3.57c0 .307.249.556.556.556h1.19a.557.557 0 000-1.113h-.633v-2.457h3.051v2.457h-.038a.557.557 0 100 1.113h4.76c.307 0 .556-.25.556-.557v-3.57a.557.557 0 00-.556-.556zm-.557 3.57H8.848v-2.457h3.051v2.457zm.557-9.52h-8.33a.557.557 0 00-.556.557v3.57c0 .307.249.557.556.557h8.33c.307 0 .556-.25.556-.557v-3.57a.557.557 0 00-.556-.556zm-7.773 1.114h3.051v2.456H4.683v-2.456zm7.216 2.456H8.848v-2.456h3.051v2.456zm13.645 7.063h8.33c.307 0 .556-.25.556-.557v-3.57a.557.557 0 00-.556-.556h-8.33a.557.557 0 00-.556.557v3.57c0 .307.249.556.556.556zm7.773-1.113h-3.051v-2.457h3.051v2.457zm-7.216-2.457h3.051v2.457h-3.051v-2.457zm-.557-2.379h8.33c.307 0 .556-.25.556-.557v-3.57a.557.557 0 00-.556-.556h-8.33a.557.557 0 00-.556.556v3.57c0 .307.249.557.556.557zm7.773-1.114h-3.051v-2.456h3.051v2.456zm-7.216-2.456h3.051v2.456h-3.051v-2.456z"/></g><defs><clipPath id="clip0_3109_15193"><path fill="#fff" d="M0 0h38v38H0z"/></clipPath></defs></svg>