<svg width="25" height="24" fill="none" xmlns="http://www.w3.org/2000/svg"><path fill-rule="evenodd" clip-rule="evenodd" d="M12.59 0c6.462.144 11.604 5.513 11.534 12.027-.07 6.515-5.42 11.669-11.881 11.597C5.71 23.553.5 18.327.5 11.813.57 5.226 5.99-.072 12.59 0zm-2.328 17.26l.231-3.351 5.966-5.51c.26-.236-.056-.367-.403-.13l-7.375 4.746-3.175-1.016c-.69-.22-.704-.706.144-1.045l12.42-4.89c.575-.22 1.077.13.89 1.028l-2.113 10.184c-.16.719-.576.897-1.166.559l-3.219-2.425-1.553 1.527c-.172.176-.316.322-.647.322z" fill="#999"/></svg>