<svg width="38" height="38" fill="none" xmlns="http://www.w3.org/2000/svg"><path d="M36.128 9.6a.52.52 0 00.52-.519V6.927a.518.518 0 00-.52-.52h-6.383v-1.86h.78a.519.519 0 00.52-.52V1.872a.52.52 0 00-.52-.52H7.476a.52.52 0 00-.519.52v2.155a.52.52 0 00.52.52h.78v1.86H1.873a.52.52 0 00-.52.52V9.08a.52.52 0 00.52.52h.781v23.853h-.78a.518.518 0 00-.52.52v2.154a.52.52 0 00.52.52h34.255a.518.518 0 00.52-.52v-2.155a.518.518 0 00-.52-.52h-.782V9.602h.782zm-.52-2.154v1.116h-5.865V7.446h5.865zM19.52 33.453v-9.074h3.184v9.075l-3.184-.002zm-4.224 0v-9.074h3.184v9.075l-3.184-.002zm7.927-10.114h-8.446a.52.52 0 00-.52.52v9.593h-.625l-1.146-3.193v-10.74h13.028v10.74l-1.146 3.195h-.625v-9.595a.52.52 0 00-.52-.519v-.001zM9.142 30.87H11.6l.928 2.583H8.214l.928-2.583zm17.258 0h2.458l.928 2.583h-4.314l.928-2.583zM7.995 2.392h22.01v1.115H7.995V2.392zm20.71 2.154v25.285h-2.152V19a.52.52 0 00-.52-.52H11.967a.52.52 0 00-.52.52v10.831h-2.15V4.546h19.408zm-26.313 2.9h5.865v1.116H2.392V7.446zm1.3 2.155h4.565V30.26L7.11 33.454H3.692V9.6zm31.916 26.006H2.392v-1.115h33.216v1.115zm-1.3-2.154H30.89l-1.147-3.194V9.6h4.564v23.852z" fill="#fff"/><path d="M17.226 16.733h3.548a.52.52 0 00.52-.52v-3.547a.52.52 0 00-.52-.52h-3.548a.52.52 0 00-.52.52v3.547a.52.52 0 00.52.52zm.52-3.547h2.508v2.508h-2.508v-2.508zm-6.37 3.547h3.547a.52.52 0 00.52-.52v-3.547a.52.52 0 00-.52-.52h-3.547a.52.52 0 00-.52.52v3.547a.52.52 0 00.52.52zm.52-3.547h2.507v2.508h-2.508v-2.508zm11.181 3.547h3.547a.52.52 0 00.52-.52v-3.547a.52.52 0 00-.52-.52h-3.547a.52.52 0 00-.52.52v3.547a.52.52 0 00.52.52zm.52-3.547h2.508v2.508h-2.509v-2.508zm-6.371-2.306h3.548a.52.52 0 00.52-.52V6.814a.52.52 0 00-.52-.52h-3.548a.52.52 0 00-.52.52v3.548a.52.52 0 00.52.52zm.52-3.547h2.508V9.84h-2.508V7.333zm-6.37 3.547h3.547a.52.52 0 00.52-.52V6.814a.52.52 0 00-.52-.52h-3.547a.52.52 0 00-.52.52v3.548a.52.52 0 00.52.52zm.52-3.547h2.507V9.84h-2.508V7.333zm11.181 3.547h3.547a.52.52 0 00.52-.52V6.814a.52.52 0 00-.52-.52h-3.547a.52.52 0 00-.52.52v3.548a.52.52 0 00.52.52zm.52-3.547h2.508V9.84h-2.509V7.333z" fill="#fff"/></svg>