<svg width="25" height="24" fill="none" xmlns="http://www.w3.org/2000/svg"><path d="M17.648 13.745c-.972-.93-1.042-.93-.208-2.004 1.042-1.36 2.432-3.078 1.181-3.078h-2.293c-.417 0-.486.286-.625.644-.556 1.36-1.668 3.15-2.085 2.863-.417-.286-.208-1.36-.208-3.078.07-.215 0-.43-.14-.572-.138-.144-.346-.287-.555-.287-.347-.071-.695-.143-1.042-.143-1.32 0-2.224.573-1.737.644.903.143.834 2.148.625 3.007-.347 1.503-1.737-1.146-2.362-2.506a.682.682 0 00-.695-.572H5.697c-.278 0-.486.071-.486.286 0 .358 1.737 3.866 3.335 5.655 1.598 1.718 3.196 1.575 4.308 1.575a.523.523 0 00.348-.143.556.556 0 00.138-.358c0-1.145.417-1.718 1.182-.93.833.859 1.042 1.431 2.084 1.431h1.876c.487 0 .626-.143.626-.358.069-.5-.765-1.431-1.46-2.076zM12.715.001C19.177.144 24.32 5.513 24.25 12.027c-.07 6.515-5.42 11.669-11.881 11.597C5.836 23.553.625 18.327.625 11.813.695 5.226 6.115-.072 12.715 0z" fill="#999"/></svg>